HIERARCHY
ROOT Hips
{
	OFFSET	0.00	0.00	0.00
	CHANNELS 6 Xposition Yposition Zposition Zrotation Xrotation Yrotation
	JOINT LeftUpLeg
	{
		OFFSET	 0.126116	-0.014019	-0.065224
		CHANNELS 3 Zrotation Xrotation Yrotation
		JOINT LeftLeg
		{
			OFFSET	 0.000000	 0.000000	 0.569914
			CHANNELS 3 Zrotation Xrotation Yrotation
			JOINT LeftFoot
			{
				OFFSET	 0.000000	 0.000000	 0.544423
				CHANNELS 3 Zrotation Xrotation Yrotation
				JOINT LeftToeBase
				{
					OFFSET	 0.000000	 0.000000	 0.207117
					CHANNELS 3 Zrotation Xrotation Yrotation
					End Site
					{
						OFFSET	 0.000000	 0.000000	 0.207117
					}
				}
			}
		}
	}
	JOINT RightUpLeg
	{
		OFFSET	-0.124023	-0.008373	-0.065224
		CHANNELS 3 Zrotation Xrotation Yrotation
		JOINT RightLeg
		{
			OFFSET	 0.000000	 0.000000	 0.570047
			CHANNELS 3 Zrotation Xrotation Yrotation
			JOINT RightFoot
			{
				OFFSET	 0.000000	 0.000000	 0.544354
				CHANNELS 3 Zrotation Xrotation Yrotation
				JOINT RightToeBase
				{
					OFFSET	 0.000000	 0.000000	 0.207540
					CHANNELS 3 Zrotation Xrotation Yrotation
					End Site
					{
						OFFSET	 0.000000	 0.000000	 0.207540
					}
				}
			}
		}
	}
	JOINT Spine
	{
		OFFSET	 0.000184	-0.007763	 0.117403
		CHANNELS 3 Zrotation Xrotation Yrotation
		JOINT Spine1
		{
			OFFSET	 0.000000	 0.000000	 0.137269
			CHANNELS 3 Zrotation Xrotation Yrotation
			JOINT Spine2
			{
				OFFSET	 0.000000	 0.000000	 0.156879
				CHANNELS 3 Zrotation Xrotation Yrotation
				JOINT LeftShoulder
				{
					OFFSET	 0.080501	-0.002496	 0.160144
					CHANNELS 3 Zrotation Xrotation Yrotation
					JOINT LeftArm
					{
						OFFSET	 0.000000	 0.000000	 0.164363
						CHANNELS 3 Zrotation Xrotation Yrotation
						JOINT LeftForeArm
						{
							OFFSET	 0.000000	 0.000000	 0.364576
							CHANNELS 3 Zrotation Xrotation Yrotation
							JOINT LeftHand
							{
								OFFSET	 0.000000	 0.000000	 0.360812
								CHANNELS 3 Zrotation Xrotation Yrotation
								JOINT LeftHandIndex1
								{
									OFFSET	 0.000000	 0.000000	 0.086006
									CHANNELS 3 Zrotation Xrotation Yrotation
									JOINT LeftHandIndex2
									{
										OFFSET	 0.000000	 0.000000	 0.047236
										CHANNELS 3 Zrotation Xrotation Yrotation
										JOINT LeftHandIndex3
										{
											OFFSET	-0.004284	-0.000551	 0.038166
											CHANNELS 3 Zrotation Xrotation Yrotation
											End Site
											{
												OFFSET	-0.004284	-0.000551	 0.038166
											}
										}
									}
								}
							}
						}
					}
				}
				JOINT Neck
				{
					OFFSET	 0.000000	 0.000000	 0.176489
					CHANNELS 3 Zrotation Xrotation Yrotation
					JOINT Head
					{
						OFFSET	 0.000000	-0.001747	 0.077940
						CHANNELS 3 Zrotation Xrotation Yrotation
						End Site
						{
							OFFSET	 0.000000	-0.001747	 0.077940
						}
					}
				}
				JOINT RightShoulder
				{
					OFFSET	-0.080363	 0.000306	 0.159706
					CHANNELS 3 Zrotation Xrotation Yrotation
					JOINT RightArm
					{
						OFFSET	 0.000000	 0.000000	 0.164196
						CHANNELS 3 Zrotation Xrotation Yrotation
						JOINT RightForeArm
						{
							OFFSET	 0.000000	 0.000000	 0.365611
							CHANNELS 3 Zrotation Xrotation Yrotation
							JOINT RightHand
							{
								OFFSET	 0.000000	 0.000000	 0.360648
								CHANNELS 3 Zrotation Xrotation Yrotation
								JOINT RightHandIndex1
								{
									OFFSET	 0.000000	 0.000000	 0.069977
									CHANNELS 3 Zrotation Xrotation Yrotation
									JOINT RightHandIndex2
									{
										OFFSET	 0.000000	 0.000000	 0.052305
										CHANNELS 3 Zrotation Xrotation Yrotation
										JOINT RightHandIndex3
										{
											OFFSET	 0.009002	-0.000782	 0.042196
											CHANNELS 3 Zrotation Xrotation Yrotation
											End Site
											{
												OFFSET	 0.009002	-0.000782	 0.042196
											}
										}
									}
								}
							}
						}
					}
				}
			}
		}
	}
}
MOTION
Frames:    5
Frame Time: 0.03333334
-3.507637	-14.686930	 0.228137	-34.933860	 0.720979	 0.550302	 2.080523	-33.588910	 172.336000	-6.236292	-68.512020	-6.820711	 177.204100	 86.731220	 179.879300	-2.324512	 37.460660	-0.209539	-0.314236	-35.206190	-177.412100	 1.815811	-73.225080	 4.338966	-178.013600	 85.366800	 179.605400	 2.404028	 21.932420	-0.134468	 24.592450	 13.678220	 2.420383	-11.631860	 7.167998	-1.435213	-13.559720	 3.852916	-0.443593	-138.965300	 89.552380	-129.451400	 49.542310	 61.173480	-77.597530	-31.581100	 7.199339	-26.573630	 37.586440	-18.784140	 7.315531	-3.812334	 37.924440	-2.927599	-2.450526	 36.184240	 0.754587	-1.378229	 35.397820	-2.634230	 1.547117	 2.549474	-3.142963	-2.891798	 6.826193	 3.503314	 93.944040	 85.939630	 171.501500	-54.136120	 70.439040	 73.391020	 11.658290	-2.084942	 30.782140	-63.202250	-22.058850	-4.354019	 6.437017	 35.671460	-0.771858	 2.830251	 35.756010	-7.813440	-2.350882	 35.473990	 5.254307
-3.505458	-14.686390	 0.236567	-35.586200	 1.794004	 0.467824	 2.287681	-34.074410	 172.424700	-5.559274	-67.241020	-5.919853	 176.775700	 87.207180	-179.484800	-2.335356	 36.269720	-0.179797	 0.053417	-35.578690	-177.544100	 1.597768	-71.430880	 4.337165	-177.522000	 85.712530	 179.260100	 2.405481	 20.941090	-0.154358	 22.607230	 13.727930	 2.335077	-11.488210	 6.989126	-1.450373	-13.310190	 3.671731	-0.456520	-131.203700	 89.486040	-137.202600	 48.267360	 61.193890	-76.785220	-29.962880	 5.882224	-25.598310	 40.341480	-18.456570	 8.074048	-3.812334	 37.924440	-2.927599	-2.450526	 36.184240	 0.754587	-1.378229	 35.397820	-2.634230	 1.674006	 2.387638	-3.112819	-2.749867	 6.697104	 3.834275	 94.095810	 85.980730	 171.261500	-54.075710	 70.659680	 73.268890	 10.023840	-3.305820	 29.666670	-65.935940	-21.836690	-5.263290	 6.437017	 35.671460	-0.771858	 2.830251	 35.756010	-7.813440	-2.350882	 35.473990	 5.254307
-3.503140	-14.685790	 0.244876	-36.162350	 2.894833	 0.321701	 2.476756	-34.633920	 172.619700	-4.968755	-66.063330	-5.129858	 176.117700	 87.695820	-178.612500	-2.343842	 35.258880	-0.155122	 0.412461	-36.081240	-177.543300	 1.381343	-69.820860	 4.324656	-177.020500	 86.075650	 178.886300	 2.406129	 20.400950	-0.165134	 20.355680	 13.704650	 2.279367	-11.363640	 6.800230	-1.443545	-13.057070	 3.489782	-0.468596	-126.250900	 89.429050	-142.170500	 46.980920	 61.132080	-75.932220	-28.279730	 4.644754	-24.565900	 42.819340	-18.014650	 8.671774	-3.812334	 37.924440	-2.927599	-2.450526	 36.184240	 0.754587	-1.378229	 35.397820	-2.634230	 1.788549	 2.252648	-3.058754	-2.598583	 6.573222	 4.204270	 94.235190	 86.014940	 171.038500	-54.020940	 70.927580	 73.036580	 8.426711	-4.432063	 28.486760	-68.356370	-21.489080	-6.007303	 6.437017	 35.671460	-0.771858	 2.830251	 35.756010	-7.813440	-2.350882	 35.473990	 5.254307
-3.500521	-14.685280	 0.253350	-36.806700	 4.007604	 0.102507	 2.720265	-35.139260	 172.886500	-4.509590	-64.858850	-4.434694	 174.958000	 88.214140	-177.247400	-2.351545	 34.267560	-0.131389	 0.833346	-36.687280	-177.417500	 0.901025	-68.491910	 4.113745	-176.109800	 86.589870	 178.000000	 2.406466	 20.056780	-0.171976	 17.724100	 13.681160	 2.276618	-11.206020	 6.614343	-1.409717	-12.778820	 3.297311	-0.480090	-122.733800	 89.379770	-145.711000	 45.681760	 61.018210	-75.176580	-26.549740	 3.442601	-23.436100	 45.079310	-17.436420	 9.117541	-3.812334	 37.924440	-2.927599	-2.450526	 36.184240	 0.754587	-1.378229	 35.397820	-2.634230	 1.910995	 2.129160	-2.984201	-2.437884	 6.430836	 4.600766	 94.343170	 86.042100	 170.869000	-54.020680	 71.257040	 72.763630	 6.678999	-5.558845	 27.136510	-70.678530	-20.998110	-6.603574	 6.437017	 35.671460	-0.771858	 2.830251	 35.756010	-7.813440	-2.350882	 35.473990	 5.254307
-3.498280	-14.685170	 0.260472	-37.436600	 4.883304	-0.119801	 3.023546	-35.434680	 173.171600	-4.303905	-63.816300	-3.955547	 173.144100	 88.666610	-175.288200	-2.357545	 33.439700	-0.111896	 1.241001	-37.251740	-177.243200	 0.232698	-67.580570	 3.735454	-174.796800	 87.217800	 176.591400	 2.406749	 19.743060	-0.178201	 15.156120	 13.745780	 2.334996	-11.014260	 6.500859	-1.361003	-12.518700	 3.143849	-0.487074	-120.659900	 89.343890	-147.793100	 44.593810	 60.905080	-74.679270	-24.952790	 2.413187	-22.373440	 46.908420	-16.832610	 9.343479	-3.812334	 37.924440	-2.927599	-2.450526	 36.184240	 0.754587	-1.378229	 35.397820	-2.634230	 2.031906	 2.027289	-2.919803	-2.303885	 6.315152	 4.925395	 94.414960	 86.061700	 170.760300	-53.952740	 71.568900	 72.437550	 4.915349	-6.559394	 25.799060	-72.694810	-20.460870	-6.958390	 6.437017	 35.671460	-0.771858	 2.830251	 35.756010	-7.813440	-2.350882	 35.473990	 5.254307
